<svg xmlns="http://www.w3.org/2000/svg" xmlns:xlink="http://www.w3.org/1999/xlink" width="64" height="64" fill="#000" version="1.1" viewBox="-4.8 -4.8 57.6 57.6"><g id="SVGRepo_bgCarrier" stroke-width="0"><path fill="#7ed0ec" d="M16,31.440987380487577C18.46598281471637,31.0244632280917,19.441220892540613,27.91020290624272,21.525727237471777,26.52839361768395C23.345659644606307,25.321969127375834,25.99815601552416,25.54119387700479,27.411181389454022,23.876569802330856C28.836289689041454,22.197711355569076,28.641650931405813,19.74348285781597,29.111421895354233,17.592014849397685C29.625478866879927,15.237724751418467,31.229122225388572,12.800728979225406,30.316560990713157,10.570444596375353C29.40064852172793,8.33196985296599,26.63128167081244,7.565048545536274,24.523429141895143,6.379037355006783C22.746223414039125,5.379068973825481,20.78200125549925,4.98650121045621,18.9189341466706,4.157418638882394C16.63997693032973,3.1432610164988772,14.722765596780466,0.3982618944876287,12.286430602768288,0.9334566944459173C9.870551863418768,1.4641578261898638,9.53094235754005,4.968017628578698,7.693079870070195,6.623425509321823C5.875328431496242,8.260718874392927,2.3077192280026506,8.198261232418123,1.6157712865108564,10.544781614176781C0.904117592006152,12.958127761733667,3.9416028800436917,14.944871710015033,4.5169379370718215,17.394296169145033C5.0112925918180125,19.498955650656317,3.8600552711050486,21.801164540551845,4.7251205696704,23.78248735296849C5.631338615813326,25.85806533630032,7.525803389647511,27.304094582798548,9.399265021397138,28.576649739327706C11.412567392824144,29.944192191755263,13.600156668907992,31.846340046937918,16,31.440987380487577" strokewidth="0" transform="translate(-4.8, -4.8), scale(1.7999999999999998)"/></g><g id="SVGRepo_iconCarrier"><g id="trend" fill="none" fill-rule="evenodd" stroke="none" stroke-width="1"><g><rect width="48" height="48" x="0" y="0" fill="#000" fill-opacity=".01"/><rect id="Rectangle" width="36" height="36" x="6" y="6" fill="#1ee16c" fill-rule="nonzero" stroke="#000" stroke-linejoin="round" stroke-width="4" rx="3"/><g id="Group" stroke="#000" stroke-linecap="round" stroke-linejoin="round" stroke-width="4" transform="translate(13.000000, 13.000000)"><polyline id="Line-2" points="13.829 -.526 13.829 7.474 7.631 7.481 7.659 22.381" transform="translate(10.729923, 10.927306) rotate(-135.000000) translate(-10.729923, -10.927306)"/><polyline id="Path-6" points="13 5 21 5 21 13"/></g></g></g></g></svg>